<svg width="64" height="64" viewBox="0 0 64 64" fill="none" xmlns="http://www.w3.org/2000/svg">
  <!-- Background Circle with Gradient -->
  <defs>
    <linearGradient id="bgGradient" x1="0%" y1="0%" x2="100%" y2="100%">
      <stop offset="0%" style="stop-color:#1890ff;stop-opacity:1" />
      <stop offset="100%" style="stop-color:#722ed1;stop-opacity:1" />
    </linearGradient>
    <linearGradient id="docGradient" x1="0%" y1="0%" x2="100%" y2="100%">
      <stop offset="0%" style="stop-color:#ffffff;stop-opacity:1" />
      <stop offset="100%" style="stop-color:#e6f7ff;stop-opacity:1" />
    </linearGradient>
  </defs>
  
  <!-- Main Circle -->
  <circle cx="32" cy="32" r="30" fill="url(#bgGradient)"/>
  
  <!-- Document Icon -->
  <rect x="18" y="14" width="24" height="32" rx="2" fill="url(#docGradient)"/>
  <rect x="22" y="20" width="16" height="2" rx="1" fill="#1890ff" opacity="0.6"/>
  <rect x="22" y="26" width="16" height="2" rx="1" fill="#1890ff" opacity="0.6"/>
  <rect x="22" y="32" width="12" height="2" rx="1" fill="#1890ff" opacity="0.6"/>
  
  <!-- AI Brain/Network Lines -->
  <circle cx="38" cy="18" r="2" fill="#13c2c2"/>
  <circle cx="44" cy="24" r="2" fill="#13c2c2"/>
  <circle cx="44" cy="36" r="2" fill="#13c2c2"/>
  <circle cx="38" cy="42" r="2" fill="#13c2c2"/>
  
  <!-- Connection Lines -->
  <line x1="38" y1="18" x2="44" y2="24" stroke="#13c2c2" stroke-width="1.5" opacity="0.6"/>
  <line x1="44" y1="24" x2="44" y2="36" stroke="#13c2c2" stroke-width="1.5" opacity="0.6"/>
  <line x1="44" y1="36" x2="38" y2="42" stroke="#13c2c2" stroke-width="1.5" opacity="0.6"/>
  
  <!-- Sparkle for AI -->
  <path d="M26 10 L27 12 L29 13 L27 14 L26 16 L25 14 L23 13 L25 12 Z" fill="#ffd700" opacity="0.8"/>
</svg>
